<?xml version="1.0" standalone="no"?><!DOCTYPE svg PUBLIC "-//W3C//DTD SVG 1.1//EN" "http://www.w3.org/Graphics/SVG/1.1/DTD/svg11.dtd"><svg t="1560138504314" class="icon" style="" viewBox="0 0 1024 1024" version="1.1" xmlns="http://www.w3.org/2000/svg" p-id="6879" xmlns:xlink="http://www.w3.org/1999/xlink" width="32" height="32"><defs><style type="text/css"></style></defs><path d="M106.418605 694.697674m40.558139 0l730.046512 0q40.55814 0 40.558139 40.55814l0 0q0 40.55814-40.558139 40.558139l-730.046512 0q-40.55814 0-40.558139-40.558139l0 0q0-40.55814 40.558139-40.55814Z" p-id="6880" fill="#2c2c2c"></path><path d="M471.44186 648.930233m0-40.55814l0-567.813953q0-40.55814 40.55814-40.55814l0 0q40.55814 0 40.55814 40.55814l0 567.813953q0 40.55814-40.55814 40.55814l0 0q-40.55814 0-40.55814-40.55814Z" p-id="6881" fill="#2c2c2c"></path><path d="M228.093023 818.604651m40.55814 0l486.697674 0q40.55814 0 40.55814 40.55814l0 0q0 40.55814-40.55814 40.558139l-486.697674 0q-40.55814 0-40.55814-40.558139l0 0q0-40.55814 40.55814-40.55814Z" p-id="6882" fill="#2c2c2c"></path><path d="M349.767442 942.883721m40.558139 0l243.348838 0q40.55814 0 40.558139 40.558139l0 0q0 40.55814-40.558139 40.55814l-243.348838 0q-40.55814 0-40.558139-40.55814l0 0q0-40.55814 40.558139-40.558139Z" p-id="6883" fill="#2c2c2c"></path></svg>