<?xml version="1.0" standalone="no"?><!DOCTYPE svg PUBLIC "-//W3C//DTD SVG 1.1//EN" "http://www.w3.org/Graphics/SVG/1.1/DTD/svg11.dtd"><svg t="1563978111497" class="icon" viewBox="0 0 1024 1024" version="1.1" xmlns="http://www.w3.org/2000/svg" p-id="1199" width="32" height="32" xmlns:xlink="http://www.w3.org/1999/xlink"><defs><style type="text/css"></style></defs><path d="M901.3 948.2H123c-17.6 0-32-14.4-32-32V115c0-17.6 14.4-32 32-32h778.3c17.6 0 32 14.4 32 32v801.2c0 17.7-14.4 32-32 32z m-770.3-40h762.3V123H131v785.2z" p-id="1200" fill="#515151"></path><path d="M853.1 538.1H166.2V171.8h686.9v366.3z m-646.9-40h606.9V211.8H206.2v286.3z" p-id="1201" fill="#515151"></path><path d="M713.8 316.6H339.1c-11 0-20-9-20-20s9-20 20-20h374.8c11 0 20 9 20 20-0.1 11-9.1 20-20.1 20zM491.9 425.5H339.3c-11 0-20-9-20-20s9-20 20-20h152.6c11 0 20 9 20 20s-9 20-20 20zM300.6 784.3h-89.1c-11 0-20-9-20-20s9-20 20-20h89.1c11 0 20 9 20 20s-9 20-20 20zM555.6 784.3h-89.1c-11 0-20-9-20-20s9-20 20-20h89.1c11 0 20 9 20 20s-9 20-20 20zM811.6 784.3h-89.1c-11 0-20-9-20-20s9-20 20-20h89.1c11 0 20 9 20 20s-9 20-20 20z" p-id="1202" fill="#515151"></path></svg>