<?xml version="1.0" standalone="no"?><!DOCTYPE svg PUBLIC "-//W3C//DTD SVG 1.1//EN" "http://www.w3.org/Graphics/SVG/1.1/DTD/svg11.dtd"><svg t="1561559018057" class="icon" viewBox="0 0 1366 1024" version="1.1" xmlns="http://www.w3.org/2000/svg" p-id="2693" xmlns:xlink="http://www.w3.org/1999/xlink" width="42.6875" height="32"><defs><style type="text/css"></style></defs><path d="M1366.243556 998.4V25.6c0-14.108444-15.246222-25.6-34.133334-25.6h-1297.066666c-18.887111 0-34.133333 11.377778-34.133334 25.6v972.8C0.910222 1012.622222 16.156444 1024 35.043556 1024h1297.066666c18.887111 0 34.133333-11.377778 34.133334-25.6zM126.065778 955.733333c-18.887111 0-34.133333-11.377778-34.133334-25.6V93.866667C91.932444 79.644444 107.178667 68.266667 126.065778 68.266667h1115.022222c18.887111 0 34.133333 11.377778 34.133333 25.6v836.266666c0 14.108444-15.246222 25.6-34.133333 25.6z" p-id="2694" fill="#13227a"></path><path d="M682.666667 561.493333l-682.666667-500.622222 45.511111-56.888889 637.155556 466.488889v91.022222zM1342.577778 83.626667l-659.911111 477.866666v-91.022222l614.4-443.733333 45.511111 56.888889z" p-id="2695" fill="#13227a"></path><path d="M649.443556 470.471111h68.266666v523.377778h-68.266666z" p-id="2696" fill="#13227a"></path></svg>